<div class="container">
	<div class="math below_pos hcenter_pos" style="left:300px;top:151px;">$x$</div>
	<div class="math vcenter_pos left_pos" style="left:257px;top:108px;">$y$</div>
	<div class="math vcenter_pos left_pos" style="left:245px;top:160px;">$z$</div>
	<div class="math above_pos right_pos" style="left:351px;top:217px;">$p_0$</div>
	<div class="math above_pos hcenter_pos" style="left:348px;top:58px;">$p_1$</div>
	<div class="math below_pos hcenter_pos" style="left:527px;top:225px;">$p_2$</div>
	<div class="math below_pos left_pos" style="left:321px;top:247px;">$p_3$</div>
</div>
<svg width="800" height="300">
	<defs>
		<marker id="arrow-start-black" markerWidth="13" markerHeight="13" refx="0" refy="4" orient="auto">
			<path d="M12,0 L12,8 L0,4 z" stroke="black" fill="black"/>
		</marker>
		<marker id="arrow-end-black" markerWidth="13" markerHeight="13" refx="12" refy="4" orient="auto">
			<path d="M0,0 L0,8 L12,4 z" stroke="black" fill="black"/>
		</marker>
		<marker id="arrow-start-red" markerWidth="13" markerHeight="13" refx="0" refy="4" orient="auto">
			<path d="M12,0 L12,8 L0,4 z" stroke="red" fill="red"/>
		</marker>
		<marker id="arrow-end-red" markerWidth="13" markerHeight="13" refx="12" refy="4" orient="auto">
			<path d="M0,0 L0,8 L12,4 z" stroke="red" fill="red"/>
		</marker>
	</defs>
	<line stroke="black" marker-end=url(#arrow-end-black) x1="260" y1="148" x2="300" y2="148"/>
	<line stroke="black" marker-end=url(#arrow-end-black) x1="260" y1="148" x2="260" y2="108"/>
	<line stroke="black" marker-end=url(#arrow-end-black) x1="260" y1="148" x2="248" y2="160"/>
	<line stroke="black" x1="348" y1="220" x2="348" y2="61"/>
	<line stroke="black" x1="348" y1="61" x2="527" y2="222"/>
	<line stroke="black" x1="527" y1="222" x2="348" y2="220"/>
	<line stroke="black" x1="324" y1="244" x2="348" y2="220"/>
	<line stroke="black" x1="324" y1="244" x2="348" y2="61"/>
	<line stroke="black" x1="324" y1="244" x2="527" y2="222"/>
	<circle stroke="red" fill="red" cx="348" cy="220" r="3"/>
	<circle stroke="red" fill="red" cx="348" cy="61" r="3"/>
	<circle stroke="red" fill="red" cx="324" cy="244" r="3"/>
	<circle stroke="red" fill="red" cx="420" cy="90" r="3"/>
	<text  baseline-shift="-40%" x="423" y="90">Fixed Point Displacement</text>
</svg>