<div class="container">
</div>
<svg width="800" height="150">
	<defs>
		<marker id="arrow-start-black" markerWidth="13" markerHeight="13" refx="0" refy="4" orient="auto">
			<path d="M12,0 L12,8 L0,4 z" stroke="black" fill="black"/>
		</marker>
		<marker id="arrow-end-black" markerWidth="13" markerHeight="13" refx="12" refy="4" orient="auto">
			<path d="M0,0 L0,8 L12,4 z" stroke="black" fill="black"/>
		</marker>
		<marker id="arrow-start-red" markerWidth="13" markerHeight="13" refx="0" refy="4" orient="auto">
			<path d="M12,0 L12,8 L0,4 z" stroke="red" fill="red"/>
		</marker>
		<marker id="arrow-end-red" markerWidth="13" markerHeight="13" refx="12" refy="4" orient="auto">
			<path d="M0,0 L0,8 L12,4 z" stroke="red" fill="red"/>
		</marker>
	</defs>
	<path stroke="black" d="M300 138 L291 138 L291 41 L300 41" fill="none"/>
	<line stroke="black" stroke-dasharray="7,7" marker-end=url(#arrow-end-black) x1="300" y1="50" x2="380" y2="130"/>
	<line stroke="black" stroke-dasharray="7,7" marker-end=url(#arrow-end-black) x1="300" y1="50" x2="300" y2="130"/>
	<line stroke="black" stroke-dasharray="7,7" marker-end=url(#arrow-end-black) x1="340" y1="90" x2="340" y2="130"/>
	<path stroke="black" d="M380 138 L388 138 L388 41 L380 41" fill="none"/>
	<path stroke="black" d="M420 138 L411 138 L411 41 L420 41" fill="none"/>
	<line stroke="black" stroke-dasharray="7,7" marker-end=url(#arrow-end-black) x1="420" y1="50" x2="500" y2="130"/>
	<line stroke="black" stroke-dasharray="7,7" marker-end=url(#arrow-end-black) x1="420" y1="50" x2="500" y2="50"/>
	<line stroke="black" stroke-dasharray="7,7" marker-end=url(#arrow-end-black) x1="460" y1="90" x2="500" y2="90"/>
	<path stroke="black" d="M500 138 L508 138 L508 41 L500 41" fill="none"/>
</svg>