<?xml version="1.0" encoding="UTF-8" standalone="yes"?><svg xmlns="http://www.w3.org/2000/svg" xmlns:xlink="http://www.w3.org/1999/xlink" height="281px" style="width:293px;height:281px;" version="1.1" viewBox="0 0 293 281" width="293px"><defs><filter height="300%" id="f1" width="300%" x="-1" y="-1"><feGaussianBlur result="blurOut" stdDeviation="2.0"/><feColorMatrix in="blurOut" result="blurOut2" type="matrix" values="0 0 0 0 0 0 0 0 0 0 0 0 0 0 0 0 0 0 .4 0"/><feOffset dx="4.0" dy="4.0" in="blurOut2" result="blurOut3"/><feBlend in="SourceGraphic" in2="blurOut3" mode="normal"/></filter></defs><g><line style="stroke: #A80036; stroke-width: 1.0; stroke-dasharray: 5.0,5.0;" x1="44" x2="44" y1="38.2969" y2="242.9609"/><line style="stroke: #A80036; stroke-width: 1.0; stroke-dasharray: 5.0,5.0;" x1="172" x2="172" y1="38.2969" y2="242.9609"/><rect fill="#FEFECE" filter="url(#f1)" height="30.2969" style="stroke: #A80036; stroke-width: 1.5;" width="69" x="8" y="3"/><text fill="#000000" font-family="sans-serif" font-size="14" lengthAdjust="spacingAndGlyphs" textLength="55" x="15" y="22.9951">Broker1</text><rect fill="#FEFECE" filter="url(#f1)" height="30.2969" style="stroke: #A80036; stroke-width: 1.5;" width="69" x="8" y="241.9609"/><text fill="#000000" font-family="sans-serif" font-size="14" lengthAdjust="spacingAndGlyphs" textLength="55" x="15" y="261.9561">Broker1</text><rect fill="#FEFECE" filter="url(#f1)" height="30.2969" style="stroke: #A80036; stroke-width: 1.5;" width="69" x="136" y="3"/><text fill="#000000" font-family="sans-serif" font-size="14" lengthAdjust="spacingAndGlyphs" textLength="55" x="143" y="22.9951">Broker2</text><rect fill="#FEFECE" filter="url(#f1)" height="30.2969" style="stroke: #A80036; stroke-width: 1.5;" width="69" x="136" y="241.9609"/><text fill="#000000" font-family="sans-serif" font-size="14" lengthAdjust="spacingAndGlyphs" textLength="55" x="143" y="261.9561">Broker2</text><line style="stroke: #A80036; stroke-width: 1.0;" x1="44.5" x2="86.5" y1="69.4297" y2="69.4297"/><line style="stroke: #A80036; stroke-width: 1.0;" x1="86.5" x2="86.5" y1="69.4297" y2="82.4297"/><line style="stroke: #A80036; stroke-width: 1.0;" x1="45.5" x2="86.5" y1="82.4297" y2="82.4297"/><polygon fill="#A80036" points="55.5,78.4297,45.5,82.4297,55.5,86.4297,51.5,82.4297" style="stroke: #A80036; stroke-width: 1.0;"/><text fill="#000000" font-family="sans-serif" font-size="13" lengthAdjust="spacingAndGlyphs" textLength="114" x="51.5" y="64.3638">write file KeyStore</text><line style="stroke: #A80036; stroke-width: 1.0;" x1="44.5" x2="86.5" y1="111.5625" y2="111.5625"/><line style="stroke: #A80036; stroke-width: 1.0;" x1="86.5" x2="86.5" y1="111.5625" y2="124.5625"/><line style="stroke: #A80036; stroke-width: 1.0;" x1="45.5" x2="86.5" y1="124.5625" y2="124.5625"/><polygon fill="#A80036" points="55.5,120.5625,45.5,124.5625,55.5,128.5625,51.5,124.5625" style="stroke: #A80036; stroke-width: 1.0;"/><text fill="#000000" font-family="sans-serif" font-size="13" lengthAdjust="spacingAndGlyphs" textLength="34" x="51.5" y="106.4966">listen</text><line style="stroke: #A80036; stroke-width: 1.0;" x1="172.5" x2="214.5" y1="153.6953" y2="153.6953"/><line style="stroke: #A80036; stroke-width: 1.0;" x1="214.5" x2="214.5" y1="153.6953" y2="166.6953"/><line style="stroke: #A80036; stroke-width: 1.0;" x1="173.5" x2="214.5" y1="166.6953" y2="166.6953"/><polygon fill="#A80036" points="183.5,162.6953,173.5,166.6953,183.5,170.6953,179.5,166.6953" style="stroke: #A80036; stroke-width: 1.0;"/><text fill="#000000" font-family="sans-serif" font-size="13" lengthAdjust="spacingAndGlyphs" textLength="113" x="179.5" y="148.6294">read file KeyStore</text><polygon fill="#A80036" points="55.5,191.6953,45.5,195.6953,55.5,199.6953,51.5,195.6953" style="stroke: #A80036; stroke-width: 1.0;"/><line style="stroke: #A80036; stroke-width: 1.0;" x1="49.5" x2="171.5" y1="195.6953" y2="195.6953"/><text fill="#000000" font-family="sans-serif" font-size="13" lengthAdjust="spacingAndGlyphs" textLength="51" x="61.5" y="190.7622">connect</text><polygon fill="#A80036" points="55.5,220.8281,45.5,224.8281,55.5,228.8281,51.5,224.8281" style="stroke: #A80036; stroke-width: 1.0;"/><line style="stroke: #A80036; stroke-width: 1.0;" x1="49.5" x2="171.5" y1="224.8281" y2="224.8281"/><text fill="#000000" font-family="sans-serif" font-size="13" lengthAdjust="spacingAndGlyphs" textLength="57" x="61.5" y="219.895">start TLS</text></g></svg>