<?xml version="1.0" encoding="UTF-8" standalone="yes"?><svg xmlns="http://www.w3.org/2000/svg" xmlns:xlink="http://www.w3.org/1999/xlink" height="282px" style="width:288px;height:282px;" version="1.1" viewBox="0 0 288 282" width="288px"><defs><filter height="300%" id="f1" width="300%" x="-1" y="-1"><feGaussianBlur result="blurOut" stdDeviation="2.0"/><feColorMatrix in="blurOut" result="blurOut2" type="matrix" values="0 0 0 0 0 0 0 0 0 0 0 0 0 0 0 0 0 0 .4 0"/><feOffset dx="4.0" dy="4.0" in="blurOut2" result="blurOut3"/><feBlend in="SourceGraphic" in2="blurOut3" mode="normal"/></filter></defs><g><line style="stroke: #A80036; stroke-width: 1.0; stroke-dasharray: 5.0,5.0;" x1="44" x2="44" y1="38.4883" y2="244.041"/><line style="stroke: #A80036; stroke-width: 1.0; stroke-dasharray: 5.0,5.0;" x1="171" x2="171" y1="38.4883" y2="244.041"/><rect fill="#FEFECE" filter="url(#f1)" height="30.4883" style="stroke: #A80036; stroke-width: 1.5;" width="68" x="8" y="3"/><text fill="#000000" font-family="sans-serif" font-size="14" lengthAdjust="spacingAndGlyphs" textLength="54" x="15" y="23.5352">Broker1</text><rect fill="#FEFECE" filter="url(#f1)" height="30.4883" style="stroke: #A80036; stroke-width: 1.5;" width="68" x="8" y="243.041"/><text fill="#000000" font-family="sans-serif" font-size="14" lengthAdjust="spacingAndGlyphs" textLength="54" x="15" y="263.5762">Broker1</text><rect fill="#FEFECE" filter="url(#f1)" height="30.4883" style="stroke: #A80036; stroke-width: 1.5;" width="68" x="135" y="3"/><text fill="#000000" font-family="sans-serif" font-size="14" lengthAdjust="spacingAndGlyphs" textLength="54" x="142" y="23.5352">Broker2</text><rect fill="#FEFECE" filter="url(#f1)" height="30.4883" style="stroke: #A80036; stroke-width: 1.5;" width="68" x="135" y="243.041"/><text fill="#000000" font-family="sans-serif" font-size="14" lengthAdjust="spacingAndGlyphs" textLength="54" x="142" y="263.5762">Broker2</text><line style="stroke: #A80036; stroke-width: 1.0;" x1="44" x2="86" y1="69.7988" y2="69.7988"/><line style="stroke: #A80036; stroke-width: 1.0;" x1="86" x2="86" y1="69.7988" y2="82.7988"/><line style="stroke: #A80036; stroke-width: 1.0;" x1="45" x2="86" y1="82.7988" y2="82.7988"/><polygon fill="#A80036" points="55,78.7988,45,82.7988,55,86.7988,51,82.7988" style="stroke: #A80036; stroke-width: 1.0;"/><text fill="#000000" font-family="sans-serif" font-size="13" lengthAdjust="spacingAndGlyphs" textLength="113" x="51" y="65.0566">write file KeyStore</text><line style="stroke: #A80036; stroke-width: 1.0;" x1="44" x2="86" y1="112.1094" y2="112.1094"/><line style="stroke: #A80036; stroke-width: 1.0;" x1="86" x2="86" y1="112.1094" y2="125.1094"/><line style="stroke: #A80036; stroke-width: 1.0;" x1="45" x2="86" y1="125.1094" y2="125.1094"/><polygon fill="#A80036" points="55,121.1094,45,125.1094,55,129.1094,51,125.1094" style="stroke: #A80036; stroke-width: 1.0;"/><text fill="#000000" font-family="sans-serif" font-size="13" lengthAdjust="spacingAndGlyphs" textLength="35" x="51" y="107.3672">listen</text><polygon fill="#A80036" points="55,150.1094,45,154.1094,55,158.1094,51,154.1094" style="stroke: #A80036; stroke-width: 1.0;"/><line style="stroke: #A80036; stroke-width: 1.0;" x1="49" x2="170" y1="154.1094" y2="154.1094"/><text fill="#000000" font-family="sans-serif" font-size="13" lengthAdjust="spacingAndGlyphs" textLength="50" x="61" y="149.6777">connect</text><line style="stroke: #A80036; stroke-width: 1.0;" x1="171" x2="213" y1="183.7305" y2="183.7305"/><line style="stroke: #A80036; stroke-width: 1.0;" x1="213" x2="213" y1="183.7305" y2="196.7305"/><line style="stroke: #A80036; stroke-width: 1.0;" x1="172" x2="213" y1="196.7305" y2="196.7305"/><polygon fill="#A80036" points="182,192.7305,172,196.7305,182,200.7305,178,196.7305" style="stroke: #A80036; stroke-width: 1.0;"/><text fill="#000000" font-family="sans-serif" font-size="13" lengthAdjust="spacingAndGlyphs" textLength="109" x="178" y="178.9883">read file KeyStore</text><polygon fill="#A80036" points="55,221.7305,45,225.7305,55,229.7305,51,225.7305" style="stroke: #A80036; stroke-width: 1.0;"/><line style="stroke: #A80036; stroke-width: 1.0;" x1="49" x2="170" y1="225.7305" y2="225.7305"/><text fill="#000000" font-family="sans-serif" font-size="13" lengthAdjust="spacingAndGlyphs" textLength="55" x="61" y="221.2988">start TLS</text></g></svg>