<div class="container">
	<div class="math below_pos hcenter_pos" style="left:230px;top:151px;">$x$</div>
	<div class="math vcenter_pos left_pos" style="left:187px;top:108px;">$y$</div>
	<div class="math vcenter_pos left_pos" style="left:175px;top:160px;">$z$</div>
	<div class="math below_pos right_pos" style="left:281px;top:195px;">$p_0$</div>
	<div class="math vcenter_pos left_pos" style="left:275px;top:33px;">$p_1$</div>
	<div class="math below_pos hcenter_pos" style="left:465px;top:172px;">$p_2$</div>
	<div class="math below_pos left_pos" style="left:251px;top:247px;">$p_3$</div>
</div>
<svg width="800" height="300">
	<defs>
		<marker id="arrow-start-black" markerWidth="13" markerHeight="13" refx="0" refy="4" orient="auto">
			<path d="M12,0 L12,8 L0,4 z" stroke="black" fill="black"/>
		</marker>
		<marker id="arrow-end-black" markerWidth="13" markerHeight="13" refx="12" refy="4" orient="auto">
			<path d="M0,0 L0,8 L12,4 z" stroke="black" fill="black"/>
		</marker>
		<marker id="arrow-start-red" markerWidth="13" markerHeight="13" refx="0" refy="4" orient="auto">
			<path d="M12,0 L12,8 L0,4 z" stroke="red" fill="red"/>
		</marker>
		<marker id="arrow-end-red" markerWidth="13" markerHeight="13" refx="12" refy="4" orient="auto">
			<path d="M0,0 L0,8 L12,4 z" stroke="red" fill="red"/>
		</marker>
	</defs>
	<line stroke="black" marker-end=url(#arrow-end-black) x1="190" y1="148" x2="230" y2="148"/>
	<line stroke="black" marker-end=url(#arrow-end-black) x1="190" y1="148" x2="190" y2="108"/>
	<line stroke="black" marker-end=url(#arrow-end-black) x1="190" y1="148" x2="178" y2="160"/>
	<line stroke="black" x1="278" y1="220" x2="278" y2="61"/>
	<line stroke="black" x1="278" y1="61" x2="457" y2="222"/>
	<line stroke="black" x1="457" y1="222" x2="278" y2="220"/>
	<line stroke="black" x1="254" y1="244" x2="278" y2="220"/>
	<line stroke="black" x1="254" y1="244" x2="278" y2="61"/>
	<line stroke="black" x1="254" y1="244" x2="457" y2="222"/>
	<line stroke="black" stroke-dasharray="7,7" x1="278" y1="192" x2="278" y2="33"/>
	<line stroke="black" stroke-dasharray="7,7" x1="278" y1="33" x2="465" y2="169"/>
	<line stroke="black" stroke-dasharray="7,7" x1="465" y1="169" x2="278" y2="192"/>
	<line stroke="black" stroke-dasharray="7,7" x1="254" y1="244" x2="278" y2="192"/>
	<line stroke="black" stroke-dasharray="7,7" x1="254" y1="244" x2="278" y2="33"/>
	<line stroke="black" stroke-dasharray="7,7" x1="254" y1="244" x2="465" y2="169"/>
	<circle stroke="red" fill="red" cx="278" cy="192" r="3"/>
	<line stroke="red" marker-end=url(#arrow-end-red) x1="278" y1="192" x2="211" y2="192"/>
	<circle stroke="red" fill="red" cx="278" cy="33" r="3"/>
	<line stroke="red" marker-end=url(#arrow-end-red) x1="278" y1="33" x2="324" y2="28"/>
	<line stroke="red" marker-end=url(#arrow-end-red) x1="465" y1="169" x2="461" y2="137"/>
	<circle stroke="red" fill="red" cx="254" cy="244" r="3"/>
	<line stroke="red" marker-end=url(#arrow-end-red) x1="254" y1="244" x2="279" y2="282"/>
	<line stroke="black" x1="390" y1="30" x2="430" y2="30"/>
	<text  baseline-shift="-40%" x="433" y="30">original geometry</text>
	<line stroke="black" x1="390" y1="50" x2="430" y2="50"/>
	<text  baseline-shift="-40%" x="433" y="50">geometry deformation</text>
	<line stroke="red" marker-end=url(#arrow-end-red) x1="390" y1="70" x2="430" y2="70"/>
	<text  baseline-shift="-40%" x="433" y="70">applied external force</text>
	<line stroke="red" marker-end=url(#arrow-end-red) x1="390" y1="90" x2="430" y2="90"/>
	<text  baseline-shift="-40%" x="433" y="90">reactions in fixed points</text>
	<circle stroke="red" fill="red" cx="390" cy="90" r="3"/>
</svg>