<div class="container">
	<div class="math vcenter_pos left_pos" style="left:297px;top:90px;">$y$</div>
	<div class="math below_pos hcenter_pos" style="left:300px;top:133px;">$z=0$</div>
	<div class="math below_pos hcenter_pos" style="left:340px;top:133px;">$x$</div>
	<div class="math vcenter_pos left_pos" style="left:137px;top:230px;">$p_0$</div>
	<div class="math vcenter_pos left_pos" style="left:137px;top:70px;">$p_1$</div>
	<div class="math below_pos hcenter_pos" style="left:320px;top:233px;">$p_2$</div>
	<div class="math below_pos hcenter_pos" style="left:140px;top:233px;">$p_3$</div>
	<div class="math below_pos hcenter_pos" style="left:619px;top:130px;">$x$</div>
	<div class="math vcenter_pos left_pos" style="left:576px;top:87px;">$y$</div>
	<div class="math vcenter_pos left_pos" style="left:564px;top:138px;">$z$</div>
	<div class="math above_pos right_pos" style="left:431px;top:217px;">$p_0'$</div>
	<div class="math vcenter_pos left_pos" style="left:425px;top:61px;">$p_1'$</div>
	<div class="math below_pos hcenter_pos" style="left:607px;top:225px;">$p_2'$</div>
	<div class="math below_pos hcenter_pos" style="left:404px;top:247px;">$p_3'$</div>
</div>
<svg width="800" height="300">
	<defs>
		<marker id="arrow-start-black" markerWidth="13" markerHeight="13" refx="0" refy="4" orient="auto">
			<path d="M12,0 L12,8 L0,4 z" stroke="black" fill="black"/>
		</marker>
		<marker id="arrow-end-black" markerWidth="13" markerHeight="13" refx="12" refy="4" orient="auto">
			<path d="M0,0 L0,8 L12,4 z" stroke="black" fill="black"/>
		</marker>
		<marker id="arrow-start-red" markerWidth="13" markerHeight="13" refx="0" refy="4" orient="auto">
			<path d="M12,0 L12,8 L0,4 z" stroke="red" fill="red"/>
		</marker>
		<marker id="arrow-end-red" markerWidth="13" markerHeight="13" refx="12" refy="4" orient="auto">
			<path d="M0,0 L0,8 L12,4 z" stroke="red" fill="red"/>
		</marker>
	</defs>
	<text  baseline-shift="-40%" text-anchor="middle" x="220" y="70">a) Original</text>
	<path stroke="black" marker-start=url(#arrow-start-black) marker-end=url(#arrow-end-black) d="M300 90 L300 130 L340 130" fill="none"/>
	<line stroke="black" x1="140" y1="230" x2="140" y2="70"/>
	<line stroke="black" x1="140" y1="70" x2="320" y2="230"/>
	<line stroke="black" x1="320" y1="230" x2="140" y2="230"/>
	<line stroke="black" x1="140" y1="230" x2="140" y2="230"/>
	<line stroke="black" x1="140" y1="230" x2="140" y2="70"/>
	<line stroke="black" x1="140" y1="230" x2="320" y2="230"/>
	<text  baseline-shift="-40%" text-anchor="middle" x="500" y="70">b) Rotated</text>
	<line stroke="black" marker-end=url(#arrow-end-black) x1="579" y1="126" x2="619" y2="127"/>
	<line stroke="black" marker-end=url(#arrow-end-black) x1="579" y1="126" x2="579" y2="87"/>
	<line stroke="black" marker-end=url(#arrow-end-black) x1="579" y1="126" x2="567" y2="138"/>
	<line stroke="black" x1="428" y1="220" x2="428" y2="61"/>
	<line stroke="black" x1="428" y1="61" x2="607" y2="222"/>
	<line stroke="black" x1="607" y1="222" x2="428" y2="220"/>
	<line stroke="black" x1="404" y1="244" x2="428" y2="220"/>
	<line stroke="black" x1="404" y1="244" x2="428" y2="61"/>
	<line stroke="black" x1="404" y1="244" x2="607" y2="222"/>
</svg>